<svg xmlns="http://www.w3.org/2000/svg" viewBox="0 0 101 42" width="101" height="42">
	<style>
		tspan { white-space:pre }
		.shp0 { fill: #000000 } 
	</style>
	<g id="Page-1">
		<g id="logo">
			<g id="编组">
				<path id="Fill-1" class="shp0" d="M31.98,29.19c-3.53,2.93 -3.21,-0.42 -7.02,1.35c-3.81,1.77 -1.16,3.44 -1.16,3.44c-7.67,1.39 -9.62,-6.6 -9.62,-6.6c-5.58,-1.81 -5.72,-12.46 -5.72,-12.46c4.09,9.25 9.25,8.04 9.25,8.04c-2.14,-0.7 -2.46,-4.04 -2.46,-4.04c4.74,4.56 9.95,-2.51 9.95,-2.51c-1.67,-0.88 -1.86,-4.14 -1.86,-4.14l5.67,0.46l7,-6.23c-3.8,-4 -9.17,-6.51 -15.13,-6.51c-11.53,0 -20.87,9.34 -20.87,20.87c0,11.52 9.34,20.87 20.87,20.87c7.05,0 13.28,-3.5 17.06,-8.85c-1,-2.87 -3.67,-5.58 -5.95,-3.69z" />
				<path id="路径" class="shp0" d="M26.35,18.13c0,0 -1.44,1.67 -2.42,2.56c0,0 0.98,-0.37 1.72,-0.23c0.74,0.14 0.93,-1.26 0.7,-2.32z" />
			</g>
			<path id="DIGITALSEE" class="shp0" d="M44.84,35.26v-5.99h2.15c0.95,0 1.66,0.27 2.15,0.82c0.44,0.5 0.67,1.23 0.67,2.17c0,0.92 -0.24,1.65 -0.72,2.17c-0.5,0.55 -1.23,0.82 -2.17,0.82zM48.57,34.04c0.37,-0.4 0.56,-1 0.56,-1.78c0,-0.81 -0.18,-1.4 -0.52,-1.79c-0.37,-0.41 -0.94,-0.61 -1.73,-0.61h-1.35v4.8h1.28c0.78,0 1.37,-0.21 1.76,-0.62zM50.82,35.26v-5.99h0.68v5.99zM53.24,34.47c-0.49,-0.56 -0.73,-1.29 -0.73,-2.18c0,-0.89 0.23,-1.62 0.72,-2.2c0.51,-0.63 1.21,-0.94 2.09,-0.94c0.75,0 1.34,0.18 1.79,0.55c0.42,0.34 0.68,0.84 0.79,1.49h-0.69c-0.09,-0.45 -0.29,-0.8 -0.6,-1.04c-0.33,-0.26 -0.76,-0.39 -1.28,-0.39c-0.65,0 -1.17,0.23 -1.55,0.69c-0.39,0.45 -0.57,1.07 -0.57,1.84c0,0.76 0.18,1.35 0.55,1.79c0.39,0.46 0.98,0.7 1.76,0.7c0.33,0 0.64,-0.05 0.94,-0.13c0.29,-0.08 0.55,-0.2 0.76,-0.34v-1.53h-1.88v-0.6h2.56v2.45c-0.29,0.23 -0.64,0.41 -1.05,0.55c-0.44,0.13 -0.9,0.2 -1.39,0.2c-0.95,0 -1.69,-0.3 -2.21,-0.91zM59.09,35.26v-5.99h0.68v5.99zM62.68,35.26v-5.4h-2.11v-0.6h4.91v0.6h-2.11v5.4zM65.61,35.26l2.36,-5.99h0.8l2.36,5.99h-0.75l-0.64,-1.68h-2.75l-0.64,1.68zM68.39,30h-0.03l-1.15,3h2.32zM71.73,35.26v-5.99h0.68v5.4h3.47v0.6zM77.11,34.92c-0.47,-0.36 -0.73,-0.91 -0.78,-1.64h0.68c0.06,0.52 0.24,0.91 0.55,1.15c0.28,0.22 0.68,0.34 1.22,0.34c0.49,0 0.89,-0.09 1.19,-0.28c0.3,-0.18 0.45,-0.44 0.45,-0.76c0,-0.38 -0.2,-0.67 -0.6,-0.88c-0.17,-0.1 -0.6,-0.24 -1.27,-0.44c-0.72,-0.22 -1.18,-0.39 -1.38,-0.49c-0.46,-0.27 -0.69,-0.65 -0.69,-1.16c0,-0.52 0.22,-0.93 0.66,-1.22c0.39,-0.27 0.91,-0.4 1.53,-0.4c0.67,0 1.21,0.15 1.59,0.46c0.4,0.32 0.63,0.8 0.69,1.43h-0.68c-0.08,-0.44 -0.24,-0.76 -0.5,-0.97c-0.27,-0.22 -0.65,-0.32 -1.13,-0.32c-0.44,0 -0.79,0.07 -1.04,0.22c-0.29,0.17 -0.43,0.42 -0.43,0.76c0,0.3 0.17,0.55 0.51,0.73c0.15,0.08 0.52,0.21 1.1,0.38c0.79,0.23 1.31,0.43 1.56,0.58c0.5,0.3 0.75,0.72 0.75,1.27c0,0.52 -0.21,0.94 -0.63,1.24c-0.42,0.29 -0.98,0.44 -1.7,0.44c-0.7,0 -1.26,-0.15 -1.66,-0.45zM81.97,35.26v-5.99h4.25v0.6h-3.56v2.01h3.36v0.6h-3.36v2.2h3.7v0.6zM87.31,35.26v-5.99h4.25v0.6h-3.56v2.01h3.36v0.6h-3.36v2.2h3.7v0.6z" />
			<path id="数犀科技" class="shp0" d="M54.49,20.53c-0.66,1.02 -1.48,1.89 -2.46,2.59l-0.69,-1.1c1.03,-0.7 1.86,-1.59 2.48,-2.7c-0.48,-0.97 -0.9,-2.06 -1.24,-3.27c-0.22,0.5 -0.45,0.98 -0.7,1.4l-0.84,-1.03c0.78,-1.54 1.31,-3.61 1.59,-6.21l1.3,0.22c-0.08,0.64 -0.17,1.24 -0.28,1.82h3.55v1.27h-0.81c-0.08,2.28 -0.5,4.22 -1.26,5.83c0.7,1.16 1.51,2.07 2.46,2.71l-0.74,1.08c-0.91,-0.66 -1.69,-1.52 -2.36,-2.6zM44.63,15.76c0.98,-0.56 1.66,-1.16 2.08,-1.8h-1.76v-1.16h2.64v-2.57h1.22v2.57h2.43v1.16h-2.43v0.07c0.74,0.31 1.5,0.67 2.27,1.08l-0.7,1.05c-0.62,-0.49 -1.13,-0.88 -1.57,-1.16v1.57h-1.22v-2.36c-0.46,1.01 -1.23,1.89 -2.31,2.64zM49.19,12.12c0.45,-0.59 0.8,-1.16 1.05,-1.72l0.94,0.45c-0.28,0.59 -0.63,1.17 -1.06,1.75zM45.17,10.77l1.05,-0.35c0.31,0.53 0.57,1.09 0.81,1.71l-0.95,0.43c-0.28,-0.67 -0.59,-1.27 -0.91,-1.79zM55.19,13.51h-1.8c-0.06,0.22 -0.11,0.43 -0.17,0.63c0.31,1.45 0.71,2.73 1.2,3.82c0.46,-1.29 0.71,-2.77 0.77,-4.45zM44.6,21.98c1.05,-0.25 1.96,-0.56 2.71,-0.95c-0.57,-0.24 -1.19,-0.48 -1.83,-0.73c0.34,-0.59 0.64,-1.13 0.91,-1.66h-1.47v-1.13h1.97c0.11,-0.28 0.21,-0.56 0.29,-0.81l1.24,0.15l-0.24,0.66h2.85v1.08c-0.25,0.84 -0.7,1.58 -1.34,2.22c0.57,0.25 1.13,0.53 1.66,0.81l-0.71,1.03c-0.55,-0.34 -1.2,-0.67 -1.97,-1.02c-0.92,0.6 -2.08,1.08 -3.47,1.44zM49.86,18.64h-2.17c-0.2,0.39 -0.41,0.77 -0.63,1.13c0.49,0.17 0.97,0.34 1.43,0.53c0.62,-0.49 1.06,-1.05 1.37,-1.66zM58.56,21.95c0.88,-1.78 1.33,-4.07 1.34,-6.9v-4.41h10.88v3.1h-9.59v1.3c-0.01,3.02 -0.56,5.62 -1.64,7.8zM69.48,11.79h-8.29v0.87h8.29zM67.4,14.68c1.05,-0.18 2.06,-0.42 3.03,-0.7l0.29,0.97c-0.91,0.25 -1.9,0.49 -2.99,0.69zM65.52,17.02v-2.98h1.29v2.98zM61.72,14.93l0.45,-0.88c0.94,0.15 1.85,0.38 2.71,0.69l-0.38,0.92c-0.9,-0.31 -1.83,-0.56 -2.78,-0.73zM65.52,23.19v-1.8h-4.46v-1.13h4.46v-1.02h-2.81c-0.25,0.34 -0.52,0.62 -0.8,0.85l-0.87,-0.76c0.66,-0.52 1.15,-1.17 1.47,-1.99l-0.6,0.11l-0.31,-1.02c1.2,-0.18 2.29,-0.39 3.24,-0.62v0.95c-0.64,0.18 -1.34,0.36 -2.13,0.53l0.85,0.32c-0.08,0.18 -0.15,0.36 -0.22,0.53h2.17v-0.78h1.31v0.78h3.79v1.08h-3.79v1.02h4.53v1.13h-4.53v1.8zM67.4,16.74l0.45,-0.88c1.01,0.17 1.99,0.42 2.92,0.76l-0.39,1.01c-0.95,-0.38 -1.94,-0.67 -2.98,-0.88zM82.87,23.07v-3.68l-4.21,0.67l-0.2,-1.29l4.41,-0.71v-7.8h1.34v7.59l1.1,-0.18l0.21,1.29l-1.31,0.21v3.9zM75.05,23.07v-6.03c-0.52,1.23 -1.19,2.36 -2.03,3.37l-0.59,-1.48c1.12,-1.12 1.94,-2.38 2.46,-3.79h-2.03v-1.27h2.18v-1.75c-0.63,0.08 -1.27,0.17 -1.92,0.22l-0.25,-1.24c1.8,-0.14 3.41,-0.42 4.84,-0.84l0.46,1.24c-0.57,0.15 -1.17,0.29 -1.79,0.41v1.96h1.79v1.27h-1.79v0.55c0.74,0.56 1.5,1.2 2.27,1.93l-0.74,1.13c-0.6,-0.74 -1.1,-1.34 -1.52,-1.79v6.11zM79.08,11.88l0.94,-0.91c0.95,0.67 1.76,1.36 2.42,2.03l-0.91,0.92c-0.59,-0.64 -1.4,-1.31 -2.45,-2.04zM78.66,15.1l0.94,-0.91c0.98,0.7 1.8,1.41 2.48,2.13l-0.95,0.94c-0.59,-0.66 -1.4,-1.37 -2.46,-2.15zM87.06,22.96l-0.28,-1.24c0.36,0.06 0.7,0.08 1.02,0.08c0.34,0 0.5,-0.2 0.5,-0.57v-2.97c-0.5,0.2 -1.02,0.39 -1.52,0.56l-0.34,-1.31c0.63,-0.14 1.24,-0.32 1.86,-0.55v-3.02h-1.58v-1.27h1.58v-2.45h1.29v2.45h1.37v1.27h-1.37v2.49c0.48,-0.22 0.94,-0.46 1.4,-0.71v1.3c-0.46,0.25 -0.92,0.48 -1.4,0.7v3.85c0,0.92 -0.45,1.4 -1.34,1.4zM91.01,22.07c1.4,-0.45 2.59,-1.02 3.55,-1.75c-1.09,-1.09 -1.82,-2.31 -2.2,-3.68h-0.73v-1.24h2.99v-2h-3.27v-1.27h3.27v-1.87h1.29v1.87h3.27v1.27h-3.27v2h2.74v1.17c-0.45,1.45 -1.19,2.71 -2.25,3.76c0.87,0.64 1.93,1.22 3.17,1.71l-0.69,1.09c-1.34,-0.59 -2.48,-1.26 -3.4,-1.99c-1.06,0.83 -2.35,1.5 -3.86,2.03zM97.36,16.64h-3.75c0.34,1.09 0.95,2.06 1.86,2.91c0.84,-0.84 1.47,-1.8 1.89,-2.91z" />
		</g>
	</g>
</svg>